<?xml version="1.0" encoding="UTF-8"?>
<svg id="Layer_1" data-name="Layer 1" xmlns="http://www.w3.org/2000/svg" viewBox="0 0 80 80">
  <defs>
    <style>
      .cls-1 {
        fill: #79747e;
      }
    </style>
  </defs>
  <path class="cls-1" d="M40,61.02c-2.87,0-5.59-.55-8.15-1.66-2.56-1.1-4.79-2.61-6.7-4.52s-3.42-4.14-4.52-6.7c-1.1-2.56-1.66-5.27-1.66-8.15s.56-5.75,1.68-8.3c1.12-2.56,2.65-4.78,4.6-6.68,1.94-1.89,4.22-3.37,6.83-4.44,2.61-1.07,5.41-1.6,8.38-1.6,2.77,0,5.4,.46,7.88,1.39,2.49,.93,4.67,2.22,6.54,3.86,1.87,1.65,3.36,3.6,4.47,5.86,1.1,2.26,1.66,4.74,1.66,7.44,0,3.78-1.1,6.77-3.31,8.96-2.21,2.19-5.13,3.29-8.78,3.29h-3.94c-.63,0-1.17,.25-1.63,.74s-.68,1.03-.68,1.63c0,.95,.25,1.75,.76,2.42s.76,1.44,.76,2.31c0,1.33-.37,2.36-1.1,3.07-.74,.72-1.77,1.08-3.1,1.08Zm-12.25-19.66c.7,0,1.31-.26,1.84-.79,.53-.53,.79-1.14,.79-1.84,0-.7-.26-1.31-.79-1.84-.53-.53-1.14-.79-1.84-.79s-1.31,.26-1.84,.79c-.53,.53-.79,1.14-.79,1.84s.26,1.31,.79,1.84c.53,.53,1.14,.79,1.84,.79Zm6.62-8.94c.7,0,1.31-.26,1.84-.79s.79-1.14,.79-1.84-.26-1.31-.79-1.84-1.14-.79-1.84-.79-1.31,.26-1.84,.79-.79,1.14-.79,1.84,.26,1.31,.79,1.84,1.14,.79,1.84,.79Zm11.25,0c.7,0,1.31-.26,1.84-.79,.53-.53,.79-1.14,.79-1.84,0-.7-.26-1.31-.79-1.84-.53-.53-1.14-.79-1.84-.79s-1.31,.26-1.84,.79c-.53,.53-.79,1.14-.79,1.84,0,.7,.26,1.31,.79,1.84,.53,.53,1.14,.79,1.84,.79Zm6.89,8.94c.7,0,1.31-.26,1.84-.79,.53-.53,.79-1.14,.79-1.84s-.26-1.31-.79-1.84c-.53-.53-1.14-.79-1.84-.79s-1.31,.26-1.84,.79c-.53,.53-.79,1.14-.79,1.84s.26,1.31,.79,1.84c.53,.53,1.14,.79,1.84,.79Zm-12.51,16.5c.39,0,.66-.08,.81-.24,.16-.16,.24-.41,.24-.76,0-.49-.25-.95-.76-1.37-.51-.42-.76-1.35-.76-2.79,0-1.61,.53-3.03,1.58-4.26,1.05-1.23,2.38-1.84,3.99-1.84h3.84c2.66,0,4.82-.78,6.47-2.34,1.65-1.56,2.47-3.81,2.47-6.75,0-4.63-1.75-8.35-5.26-11.17s-7.55-4.23-12.14-4.23c-5.12,0-9.45,1.73-13.01,5.18-3.56,3.45-5.34,7.68-5.34,12.69s1.74,9.15,5.23,12.64c3.49,3.49,7.7,5.23,12.64,5.23Z"/>
</svg>