<?xml version="1.0" encoding="UTF-8"?>
<svg id="Layer_1" data-name="Layer 1" xmlns="http://www.w3.org/2000/svg" viewBox="0 0 80 80">
  <defs>
    <style>
      .cls-1 {
        fill: #79747e;
      }
    </style>
  </defs>
  <path class="cls-1" d="M32.99,19v-3.5h14.02v3.5h-14.02Zm5.26,26.11h3.5v-13.43h-3.5v13.43Zm1.75,19.39c-2.88,0-5.6-.55-8.15-1.66-2.55-1.11-4.78-2.62-6.69-4.53-1.91-1.91-3.42-4.14-4.53-6.69-1.11-2.55-1.66-5.27-1.66-8.15s.55-5.6,1.66-8.15c1.11-2.55,2.62-4.78,4.53-6.69s4.14-3.42,6.69-4.53c2.55-1.11,5.27-1.66,8.15-1.66,2.61,0,5.06,.44,7.36,1.31,2.3,.88,4.34,2.09,6.13,3.65l2.98-2.98,2.45,2.45-2.98,2.98c1.4,1.56,2.6,3.45,3.59,5.67,.99,2.22,1.49,4.87,1.49,7.94,0,2.88-.55,5.6-1.66,8.15-1.11,2.55-2.62,4.78-4.53,6.69-1.91,1.91-4.14,3.42-6.69,4.53-2.55,1.11-5.27,1.66-8.15,1.66Zm0-3.5c4.87,0,9-1.7,12.41-5.11,3.41-3.41,5.11-7.54,5.11-12.41s-1.7-9-5.11-12.41c-3.41-3.41-7.54-5.11-12.41-5.11-4.87,0-9,1.7-12.41,5.11-3.41,3.41-5.11,7.54-5.11,12.41s1.7,9,5.11,12.41c3.41,3.41,7.54,5.11,12.41,5.11Z"/>
</svg>