<?xml version="1.0" encoding="UTF-8"?>
<svg id="Layer_1" data-name="Layer 1" xmlns="http://www.w3.org/2000/svg" viewBox="0 0 80 80">
  <defs>
    <style>
      .cls-1 {
        fill: #79747e;
      }
    </style>
  </defs>
  <path class="cls-1" d="M31.43,57.76h17.14v-6.64c0-2.44-.83-4.54-2.48-6.3-1.65-1.76-3.68-2.64-6.09-2.64s-4.43,.88-6.09,2.64c-1.65,1.76-2.48,3.86-2.48,6.3v6.64Zm-8.15,3.14v-3.14h5.02v-6.64c0-2.44,.64-4.68,1.91-6.71,1.27-2.04,3.04-3.51,5.3-4.42-2.26-.91-4.03-2.39-5.3-4.44-1.27-2.06-1.91-4.3-1.91-6.74v-6.58h-5.02v-3.14H56.72v3.14h-5.02v6.58c0,2.44-.64,4.69-1.91,6.74s-3.04,3.54-5.3,4.44c2.26,.91,4.03,2.38,5.3,4.42s1.91,4.28,1.91,6.71v6.64h5.02v3.14H23.28Z"/>
</svg>